<svg aria-hidden="true" style="width:0;height:0;position:absolute;overflow:hidden" xmlns="http://www.w3.org/2000/svg"><defs><symbol id="icon-book-reader" viewBox="0 0 32 32"><path fill="#fff" style="fill:var(--color1,#fff)" d="M22 6a6 6 0 1 0-12 0 6 6 0 0 0 12 0zm-7.401 9.068c-3.708-2.268-9.714-2.894-12.736-3.066C.845 11.944 0 12.719 0 13.695V27.62c0 .896.724 1.643 1.655 1.691 2.729.143 8.251.667 12.066 2.589.585.295 1.28-.107 1.28-.741v-15.38c0-.3-.159-.564-.398-.71l-.004-.002zm15.539-3.065c-3.022.172-9.029.795-12.736 3.066a.85.85 0 0 0-.401.721v15.369c0 .637.697 1.04 1.284.744 3.815-1.92 9.333-2.445 12.061-2.587.931-.048 1.655-.795 1.655-1.691V13.699c0-.976-.847-1.751-1.862-1.693z"/></symbol><symbol id="icon-pencil" viewBox="0 0 32 32"><path fill="#fff" style="fill:var(--color1,#fff)" d="m31.119 8.881-2.881 2.881a.749.749 0 0 1-1.062 0l-6.938-6.938a.749.749 0 0 1 0-1.062L23.119.881c.544-.542 1.294-.877 2.122-.877s1.578.335 2.122.877l3.756 3.756c.544.542.881 1.293.881 2.122s-.337 1.58-.881 2.122zM17.763 6.237 1.351 22.649.025 30.244a1.501 1.501 0 0 0 1.737 1.737l7.594-1.331 16.412-16.411a.75.75 0 0 0 0-1.064l-6.937-6.938a.758.758 0 0 0-1.07 0zM7.756 21.243a.87.87 0 0 1 0-1.237l9.626-9.626a.87.87 0 0 1 1.237 0 .87.87 0 0 1 0 1.238l-9.625 9.625a.87.87 0 0 1-1.238 0zM5.5 26.501h2.999v2.267l-4.03.707-1.944-1.944.706-4.031H5.5v3z"/></symbol><symbol id="icon-university" viewBox="0 0 34 32"><path fill="#fff" style="fill:var(--color1,#fff)" d="M33.967 6.968v1.129a.565.565 0 0 1-.565.565h-1.693v.846a.846.846 0 0 1-.846.846H3.201a.846.846 0 0 1-.846-.846v-.846H.661a.565.565 0 0 1-.565-.565V6.968c0-.234.142-.434.345-.52l.004-.001L16.816.237a.558.558 0 0 1 .435.001l-.004-.001 16.372 6.21a.565.565 0 0 1 .348.521v.001zm-1.692 21.451H1.79c-.935 0-1.693.758-1.693 1.693v1.13c0 .312.253.565.565.565h32.741a.565.565 0 0 0 .565-.565v-1.129c0-.935-.758-1.693-1.693-1.693zM5.742 11.484v13.548h-2.54a.846.846 0 0 0-.846.846v1.411H31.71v-1.411a.846.846 0 0 0-.846-.846h-2.541V11.484h-4.516v13.548h-4.516V11.484h-4.516v13.548h-4.514V11.484H5.742z"/><symbol id="icon-logo" viewBox="0 0 41 32"><path fill="#28a745" style="fill:var(--color1,#28a745)" d="M38.196.004c-3.86.219-11.533 1.018-16.27 3.923-.327.2-.512.557-.512.929v25.676c0 .815.89 1.33 1.64.952 4.873-2.457 11.921-3.127 15.406-3.311 1.19-.063 2.115-1.018 2.115-2.163V2.17C40.576.92 39.494-.07 38.196.004zM18.649 3.926C13.913 1.022 6.24.223 2.38.003 1.082-.07 0 .92 0 2.169v23.84c0 1.146.925 2.101 2.115 2.163 3.486.183 10.538.855 15.411 3.313.748.378 1.635-.137 1.635-.95V4.841c0-.373-.185-.716-.512-.917z"/></symbol></symbol></defs></svg>