<svg aria-hidden="true" style="position: absolute; width: 0; height: 0; overflow: hidden;" version="1.1" xmlns="http://www.w3.org/2000/svg" xmlns:xlink="http://www.w3.org/1999/xlink">
<defs>
<symbol id="icon-book-reader" viewBox="0 0 32 32">
<path fill="#fff" style="fill: var(--color1, #fff)" d="M22 6c0-3.314-2.686-6-6-6s-6 2.686-6 6v0c0 3.313 2.686 6 6 6s6-2.686 6-6v0zM14.599 15.068c-3.708-2.268-9.714-2.894-12.736-3.066-1.018-0.058-1.863 0.717-1.863 1.693v13.925c0 0.896 0.724 1.643 1.655 1.691 2.729 0.143 8.251 0.667 12.066 2.589 0.585 0.295 1.28-0.107 1.28-0.741v-15.375c0-0.001 0-0.003 0-0.005 0-0.3-0.159-0.564-0.398-0.71l-0.004-0.002zM30.138 12.003c-3.022 0.172-9.029 0.795-12.736 3.066-0.242 0.152-0.401 0.418-0.401 0.721 0 0.002 0 0.004 0 0.007v-0 15.362c0 0.637 0.697 1.040 1.284 0.744 3.815-1.92 9.333-2.445 12.061-2.587 0.931-0.048 1.655-0.795 1.655-1.691v-13.926c0-0.976-0.847-1.751-1.862-1.693z"></path>
</symbol>
<symbol id="icon-pencil" viewBox="0 0 32 32">
<path fill="#fff" style="fill: var(--color1, #fff)" d="M31.119 8.881l-2.881 2.881c-0.136 0.136-0.324 0.22-0.531 0.22s-0.395-0.084-0.531-0.22v0l-6.938-6.938c-0.136-0.136-0.22-0.324-0.22-0.531s0.084-0.395 0.22-0.531v0l2.881-2.881c0.544-0.542 1.294-0.877 2.122-0.877s1.578 0.335 2.122 0.877l3.756 3.756c0.544 0.542 0.881 1.293 0.881 2.122s-0.337 1.58-0.881 2.122l-0 0zM17.763 6.237l-16.412 16.412-1.326 7.595c-0.181 1.025 0.713 1.913 1.737 1.737l7.594-1.331 16.412-16.411c0.136-0.136 0.221-0.324 0.221-0.532s-0.084-0.396-0.221-0.532l-6.937-6.938c-0.137-0.136-0.326-0.221-0.535-0.221s-0.398 0.084-0.535 0.221l0-0zM7.756 21.243c-0.159-0.158-0.258-0.377-0.258-0.619s0.098-0.461 0.258-0.618l9.626-9.626c0.158-0.159 0.377-0.258 0.619-0.258s0.461 0.098 0.618 0.258l0 0c0.159 0.158 0.258 0.377 0.258 0.619s-0.099 0.461-0.258 0.619l-9.625 9.625c-0.158 0.159-0.377 0.258-0.619 0.258s-0.461-0.099-0.619-0.258l-0-0zM5.5 26.501h2.999v2.267l-4.030 0.707-1.944-1.944 0.706-4.031h2.269v3z"></path>
</symbol>
<symbol id="icon-university" viewBox="0 0 34 32">
<path fill="#fff" style="fill: var(--color1, #fff)" d="M33.967 6.968v1.129c0 0.312-0.253 0.565-0.565 0.565v0h-1.693v0.846c0 0.467-0.379 0.846-0.846 0.846v0h-27.662c-0.467 0-0.846-0.379-0.846-0.846v0-0.846h-1.694c-0.312 0-0.565-0.253-0.565-0.565v0-1.129c0-0.234 0.142-0.434 0.345-0.52l0.004-0.001 16.371-6.21c0.064-0.027 0.138-0.043 0.216-0.043s0.152 0.016 0.219 0.044l-0.004-0.001 16.372 6.21c0.206 0.087 0.348 0.287 0.348 0.521 0 0 0 0 0 0.001v-0zM32.275 28.419h-30.485c-0.935 0-1.693 0.758-1.693 1.693v0 1.13c0 0.312 0.253 0.565 0.565 0.565v0h32.741c0.312 0 0.565-0.253 0.565-0.565v0-1.129c0-0.935-0.758-1.693-1.693-1.693v0zM5.742 11.484v13.548h-2.54c-0.467 0-0.846 0.379-0.846 0.846v0 1.411h29.354v-1.411c0-0.467-0.379-0.846-0.846-0.846v0h-2.541v-13.548h-4.516v13.548h-4.516v-13.548h-4.516v13.548h-4.514v-13.548h-4.519z"></path>
</symbol>
</defs>
</svg>
