<svg aria-hidden="true" style="position: absolute; width: 0; height: 0; overflow: hidden;" version="1.1" xmlns="http://www.w3.org/2000/svg" xmlns:xlink="http://www.w3.org/1999/xlink">
<defs>
<symbol id="icon-logo" viewBox="0 0 41 32">
<path fill="#28a745" style="fill: var(--color1, #28a745)" d="M38.196 0.004c-3.86 0.219-11.533 1.018-16.27 3.923-0.327 0.2-0.512 0.557-0.512 0.929v25.676c0 0.815 0.89 1.33 1.64 0.952 4.873-2.457 11.921-3.127 15.406-3.311 1.19-0.063 2.115-1.018 2.115-2.163v-23.84c0.001-1.25-1.081-2.24-2.379-2.166zM18.649 3.926c-4.736-2.904-12.409-3.703-16.269-3.923-1.298-0.073-2.38 0.917-2.38 2.166v23.84c0 1.146 0.925 2.101 2.115 2.163 3.486 0.183 10.538 0.855 15.411 3.313 0.748 0.378 1.635-0.137 1.635-0.95v-25.694c0-0.373-0.185-0.716-0.512-0.917z"></path>
</symbol>
</defs>
</svg>
